<svg width="97" height="24" viewBox="0 0 97 24" fill="none" xmlns="http://www.w3.org/2000/svg">
<g clip-path="url(#clip0_1216_16)">
<path d="M6.62491 12H2.06384V6.19001C2.06609 5.78557 2.13399 5.38399 2.26507 5.00001C2.54666 4.1507 3.11769 3.41932 3.88453 2.9258C4.65136 2.43227 5.56848 2.20589 6.4855 2.28377C7.40253 2.36165 8.26503 2.73917 8.93159 3.35444C9.59815 3.9697 10.0292 4.78618 10.1541 5.67001" stroke="#5F7F3E" stroke-width="2" stroke-linecap="round" stroke-linejoin="round"/>
<path d="M10.3192 16V18.18C10.3375 18.9788 10.1086 19.7647 9.66189 20.4363C9.21518 21.1079 8.57114 21.6344 7.81279 21.9481C7.05444 22.2617 6.21653 22.3481 5.40707 22.1961C4.59761 22.044 3.85368 21.6605 3.27118 21.095C2.88871 20.7321 2.58489 20.2988 2.37756 19.8205C2.17024 19.3423 2.06358 18.8287 2.06384 18.31V12" stroke="#5F7F3E" stroke-width="2" stroke-linecap="round" stroke-linejoin="round"/>
<path d="M17.2123 11L11.4646 16.585L7.2234 12.475C7.10991 12.3659 7.00472 12.2489 6.90867 12.125C6.74449 11.9312 6.60101 11.7218 6.48042 11.5C6.14955 10.8753 5.99742 10.1762 6.03986 9.47521C6.0823 8.77426 6.31775 8.09712 6.72174 7.51423C7.12572 6.93133 7.68348 6.46397 8.337 6.16074C8.99052 5.85752 9.71594 5.7295 10.4378 5.79001C11.3969 5.86179 12.2976 6.2645 12.9763 6.92501L17.2123 11Z" stroke="#5F7F3E" stroke-width="2" stroke-linecap="round" stroke-linejoin="round"/>
<path d="M21.4483 20.69C21.0712 21.0562 20.6232 21.3467 20.1301 21.5449C19.637 21.7431 19.1083 21.8451 18.5745 21.8451C18.0406 21.8451 17.512 21.7431 17.0188 21.5449C16.5257 21.3467 16.0777 21.0562 15.7006 20.69L11.4594 16.58L17.2123 11L21.4535 15.11C21.8319 15.4763 22.1321 15.9114 22.3367 16.3904C22.5413 16.8693 22.6464 17.3827 22.6459 17.901C22.6454 18.4194 22.5394 18.9326 22.3339 19.4112C22.1284 19.8897 21.8275 20.3243 21.4483 20.69Z" stroke="#5F7F3E" stroke-width="2" stroke-linecap="round" stroke-linejoin="round"/>
<path d="M280.681 -180H-80.4893V170H280.681V-180Z" stroke="black" stroke-width="2" stroke-linecap="round" stroke-linejoin="round"/>
</g>
<path d="M29.77 21.228C28.978 21.228 28.298 21.092 27.73 20.82C27.162 20.54 26.698 20.176 26.338 19.728C25.978 19.272 25.71 18.784 25.534 18.264C25.366 17.736 25.282 17.224 25.282 16.728V16.464C25.282 15.92 25.37 15.384 25.546 14.856C25.722 14.32 25.99 13.836 26.35 13.404C26.718 12.972 27.178 12.628 27.73 12.372C28.29 12.108 28.95 11.976 29.71 11.976C30.502 11.976 31.202 12.124 31.81 12.42C32.418 12.716 32.902 13.128 33.262 13.656C33.63 14.176 33.846 14.788 33.91 15.492H31.93C31.874 15.14 31.746 14.84 31.546 14.592C31.346 14.344 31.086 14.152 30.766 14.016C30.454 13.88 30.102 13.812 29.71 13.812C29.318 13.812 28.97 13.88 28.666 14.016C28.362 14.152 28.106 14.344 27.898 14.592C27.698 14.84 27.542 15.136 27.43 15.48C27.326 15.816 27.274 16.192 27.274 16.608C27.274 17.016 27.326 17.392 27.43 17.736C27.542 18.072 27.702 18.368 27.91 18.624C28.126 18.872 28.39 19.064 28.702 19.2C29.014 19.328 29.37 19.392 29.77 19.392C30.378 19.392 30.89 19.244 31.306 18.948C31.73 18.652 31.986 18.244 32.074 17.724H34.042C33.97 18.364 33.754 18.952 33.394 19.488C33.042 20.016 32.558 20.44 31.942 20.76C31.334 21.072 30.61 21.228 29.77 21.228ZM35.3476 21V12.168H37.3156V21H35.3476ZM40.6636 21L38.0956 17.232H40.2556L42.9436 21H40.6636ZM36.7876 18.192V16.644H38.9476C39.2356 16.644 39.4836 16.588 39.6916 16.476C39.9076 16.356 40.0716 16.192 40.1836 15.984C40.3036 15.768 40.3636 15.52 40.3636 15.24C40.3636 14.96 40.3036 14.716 40.1836 14.508C40.0716 14.292 39.9076 14.128 39.6916 14.016C39.4836 13.896 39.2356 13.836 38.9476 13.836H36.7876V12.168H38.7916C39.5196 12.168 40.1516 12.28 40.6876 12.504C41.2236 12.72 41.6356 13.044 41.9236 13.476C42.2116 13.908 42.3556 14.452 42.3556 15.108V15.3C42.3556 15.948 42.2076 16.488 41.9116 16.92C41.6236 17.344 41.2116 17.664 40.6756 17.88C40.1476 18.088 39.5196 18.192 38.7916 18.192H36.7876ZM44.1132 21V12.24H46.8252L48.8292 17.16H49.0572L51.0372 12.24H53.7972V21H51.8532V13.524L52.1292 13.548L49.8132 19.224H47.9412L45.6132 13.548L45.9132 13.524V21H44.1132ZM60.0092 18.492V16.788H61.5812C61.8852 16.788 62.1452 16.728 62.3612 16.608C62.5852 16.488 62.7572 16.32 62.8772 16.104C62.9972 15.88 63.0572 15.624 63.0572 15.336C63.0572 15.032 62.9972 14.772 62.8772 14.556C62.7572 14.332 62.5852 14.164 62.3612 14.052C62.1452 13.932 61.8852 13.872 61.5812 13.872H60.0092V12.168H61.4852C62.2292 12.168 62.8652 12.292 63.3932 12.54C63.9292 12.788 64.3372 13.14 64.6172 13.596C64.9052 14.052 65.0492 14.6 65.0492 15.24V15.432C65.0492 16.056 64.9052 16.6 64.6172 17.064C64.3372 17.52 63.9292 17.872 63.3932 18.12C62.8652 18.368 62.2292 18.492 61.4852 18.492H60.0092ZM58.2812 21V12.168H60.2492V21H58.2812ZM66.1771 21V12.24H68.0971V17.292H67.8091C67.8091 16.628 67.8931 16.068 68.0611 15.612C68.2291 15.156 68.4771 14.812 68.8051 14.58C69.1331 14.34 69.5451 14.22 70.0411 14.22H70.1251C70.8531 14.22 71.4091 14.48 71.7931 15C72.1771 15.512 72.3691 16.264 72.3691 17.256V21H70.4491V17.136C70.4491 16.776 70.3411 16.488 70.1251 16.272C69.9171 16.048 69.6411 15.936 69.2971 15.936C68.9371 15.936 68.6451 16.052 68.4211 16.284C68.2051 16.516 68.0971 16.824 68.0971 17.208V21H66.1771ZM77.9772 21V19.056H77.6532V16.944C77.6532 16.608 77.5732 16.356 77.4132 16.188C77.2532 16.02 76.9972 15.936 76.6452 15.936C76.4692 15.936 76.2372 15.94 75.9492 15.948C75.6612 15.956 75.3652 15.968 75.0612 15.984C74.7572 16 74.4812 16.016 74.2332 16.032V14.412C74.4172 14.396 74.6332 14.38 74.8812 14.364C75.1292 14.348 75.3852 14.336 75.6492 14.328C75.9132 14.32 76.1612 14.316 76.3932 14.316C77.0652 14.316 77.6292 14.412 78.0852 14.604C78.5492 14.796 78.9012 15.088 79.1412 15.48C79.3812 15.864 79.5012 16.36 79.5012 16.968V21H77.9772ZM75.8772 21.168C75.4052 21.168 74.9892 21.084 74.6292 20.916C74.2772 20.748 74.0012 20.508 73.8012 20.196C73.6012 19.876 73.5012 19.496 73.5012 19.056C73.5012 18.576 73.6252 18.184 73.8732 17.88C74.1212 17.568 74.4692 17.34 74.9172 17.196C75.3652 17.044 75.8812 16.968 76.4652 16.968H77.8692V18.036H76.4532C76.1172 18.036 75.8572 18.12 75.6732 18.288C75.4972 18.448 75.4092 18.668 75.4092 18.948C75.4092 19.212 75.4972 19.428 75.6732 19.596C75.8572 19.756 76.1172 19.836 76.4532 19.836C76.6692 19.836 76.8612 19.8 77.0292 19.728C77.2052 19.648 77.3492 19.516 77.4612 19.332C77.5732 19.148 77.6372 18.892 77.6532 18.564L78.1092 19.044C78.0692 19.5 77.9572 19.884 77.7732 20.196C77.5972 20.508 77.3492 20.748 77.0292 20.916C76.7172 21.084 76.3332 21.168 75.8772 21.168ZM81.1302 21V14.424H82.6542V17.244H82.6182C82.6182 16.316 82.8142 15.6 83.2062 15.096C83.6062 14.592 84.1822 14.34 84.9342 14.34H85.1862V15.996H84.7062C84.1782 15.996 83.7702 16.14 83.4822 16.428C83.1942 16.708 83.0502 17.116 83.0502 17.652V21H81.1302ZM86.181 21V14.424H87.705V17.256H87.597C87.597 16.584 87.681 16.024 87.849 15.576C88.017 15.128 88.269 14.792 88.605 14.568C88.941 14.336 89.353 14.22 89.841 14.22H89.925C90.421 14.22 90.833 14.336 91.161 14.568C91.497 14.792 91.749 15.128 91.917 15.576C92.093 16.024 92.181 16.584 92.181 17.256H91.713C91.713 16.584 91.797 16.024 91.965 15.576C92.141 15.128 92.397 14.792 92.733 14.568C93.069 14.336 93.481 14.22 93.969 14.22H94.053C94.549 14.22 94.965 14.336 95.301 14.568C95.645 14.792 95.905 15.128 96.081 15.576C96.257 16.024 96.345 16.584 96.345 17.256V21H94.425V17.148C94.425 16.788 94.329 16.496 94.137 16.272C93.953 16.048 93.689 15.936 93.345 15.936C93.001 15.936 92.729 16.052 92.529 16.284C92.329 16.508 92.229 16.808 92.229 17.184V21H90.297V17.148C90.297 16.788 90.201 16.496 90.009 16.272C89.825 16.048 89.565 15.936 89.229 15.936C88.877 15.936 88.601 16.052 88.401 16.284C88.201 16.508 88.101 16.808 88.101 17.184V21H86.181Z" fill="#6F8B51"/>
<defs>
<clipPath id="clip0_1216_16">
<rect width="24.766" height="24" fill="white"/>
</clipPath>
</defs>
</svg>
