<svg width="23" height="189" viewBox="0 0 23 189" fill="none" xmlns="http://www.w3.org/2000/svg">
<path d="M22.9985 185.5L16.9985 182.036L16.9985 188.964L22.9985 185.5ZM0.998563 39L0.398563 39L0.398563 39L0.998563 39ZM4.99854 185.5L4.99855 186.1L4.99854 185.5ZM0.998547 181.5L1.59854 181.5L0.998547 181.5ZM4.99855 186.1L17.5985 186.1L17.5985 184.9L4.99854 184.9L4.99855 186.1ZM0.4 -2.21037e-05L0.398563 39L1.59856 39L1.6 2.21037e-05L0.4 -2.21037e-05ZM0.398563 39L0.398545 181.5L1.59854 181.5L1.59856 39L0.398563 39ZM4.99854 184.9C3.12078 184.9 1.59854 183.378 1.59854 181.5L0.398545 181.5C0.398546 184.04 2.45804 186.1 4.99855 186.1L4.99854 184.9Z" fill="#0A77C7"/>
</svg>
