<svg width="18" height="17" viewBox="0 0 18 17" fill="none" xmlns="http://www.w3.org/2000/svg">
<path d="M17.4543 1.12083C17.1543 0.866431 16.6831 0.830031 16.1959 1.02563H16.1951C15.6827 1.23123 1.69074 7.23283 1.12114 7.47803C1.01754 7.51403 0.112742 7.85163 0.205942 8.60363C0.289142 9.28163 1.01634 9.56243 1.10514 9.59483L4.66234 10.8128C4.89834 11.5984 5.76834 14.4968 5.96074 15.116C6.08074 15.502 6.27634 16.0092 6.61914 16.1136C6.91994 16.2296 7.21914 16.1236 7.41274 15.9716L9.58754 13.9544L13.0983 16.6924L13.1819 16.7424C13.4203 16.848 13.6487 16.9008 13.8667 16.9008C14.0351 16.9008 14.1967 16.8692 14.3511 16.806C14.8771 16.59 15.0875 16.0888 15.1095 16.032L17.7319 2.40123C17.8919 1.67323 17.6695 1.30283 17.4543 1.12083ZM7.79954 11.3L6.59954 14.5L5.39954 10.5L14.5995 3.70003L7.79954 11.3Z" fill="#535D6A"/>
</svg>
