<svg width="16" height="16" viewBox="0 0 16 16" fill="none" xmlns="http://www.w3.org/2000/svg">
<rect width="16" height="16" rx="3" fill="#5F7F3E"/>
<g clip-path="url(#clip0_1212_88)">
<g filter="url(#filter0_dd_1212_88)">
<path d="M4.74499 7.99994H2.16666V4.61077C2.16792 4.37485 2.20631 4.1406 2.28041 3.91661C2.43959 3.42118 2.76239 2.99454 3.19587 2.70665C3.62936 2.41876 4.1478 2.2867 4.66619 2.33213C5.18457 2.37756 5.67214 2.59779 6.04894 2.95669C6.42574 3.31559 6.66941 3.79187 6.73999 4.30744" stroke="white" stroke-opacity="0.1" stroke-linecap="round" stroke-linejoin="round" shape-rendering="crispEdges"/>
</g>
<path opacity="0.1" d="M6.83332 10.3333V11.605C6.84371 12.071 6.7143 12.5294 6.46177 12.9212C6.20925 13.3129 5.84518 13.6201 5.41649 13.8031C4.9878 13.986 4.51414 14.0364 4.05656 13.9477C3.59897 13.859 3.17844 13.6353 2.84916 13.3054C2.63295 13.0937 2.4612 12.841 2.344 12.562C2.2268 12.283 2.16651 11.9834 2.16666 11.6808V8" stroke="white" stroke-linecap="round" stroke-linejoin="round"/>
<path opacity="0.1" d="M10.73 7.41671L7.48082 10.6746L5.08332 8.27713C5.01917 8.21346 4.95971 8.14523 4.9054 8.07296C4.8126 7.95993 4.73149 7.83778 4.66332 7.70838C4.47628 7.34399 4.39029 6.93614 4.41428 6.52725C4.43827 6.11836 4.57137 5.72336 4.79973 5.38334C5.0281 5.04332 5.3434 4.77069 5.71283 4.59381C6.08226 4.41692 6.49234 4.34225 6.9004 4.37755C7.44255 4.41942 7.95171 4.65433 8.3354 5.03963L10.73 7.41671Z" stroke="white" stroke-linecap="round" stroke-linejoin="round"/>
<path opacity="0.1" d="M13.1246 13.0691C12.9114 13.2827 12.6581 13.4522 12.3794 13.5678C12.1006 13.6834 11.8018 13.7429 11.5 13.7429C11.1982 13.7429 10.8994 13.6834 10.6206 13.5678C10.3418 13.4522 10.0886 13.2827 9.87541 13.0691L7.47791 10.6716L10.73 7.41663L13.1275 9.81413C13.3414 10.0278 13.5111 10.2816 13.6267 10.561C13.7424 10.8404 13.8018 11.1399 13.8015 11.4422C13.8013 11.7446 13.7413 12.044 13.6252 12.3231C13.509 12.6023 13.3389 12.8558 13.1246 13.0691Z" stroke="white" stroke-linecap="round" stroke-linejoin="round"/>
<path d="M159.667 -104H-44.5V100.167H159.667V-104Z" stroke="black" stroke-width="2" stroke-linecap="round" stroke-linejoin="round"/>
</g>
<path d="M4.085 8.095C3.755 8.095 3.47167 8.03833 3.235 7.925C2.99833 7.80833 2.805 7.65667 2.655 7.47C2.505 7.28 2.39333 7.07667 2.32 6.86C2.25 6.64 2.215 6.42667 2.215 6.22V6.11C2.215 5.88333 2.25167 5.66 2.325 5.44C2.39833 5.21667 2.51 5.015 2.66 4.835C2.81333 4.655 3.005 4.51167 3.235 4.405C3.46833 4.295 3.74333 4.24 4.06 4.24C4.39 4.24 4.68167 4.30167 4.935 4.425C5.18833 4.54833 5.39 4.72 5.54 4.94C5.69333 5.15667 5.78333 5.41167 5.81 5.705H4.985C4.96167 5.55833 4.90833 5.43333 4.825 5.33C4.74167 5.22667 4.63333 5.14667 4.5 5.09C4.37 5.03333 4.22333 5.005 4.06 5.005C3.89667 5.005 3.75167 5.03333 3.625 5.09C3.49833 5.14667 3.39167 5.22667 3.305 5.33C3.22167 5.43333 3.15667 5.55667 3.11 5.7C3.06667 5.84 3.045 5.99667 3.045 6.17C3.045 6.34 3.06667 6.49667 3.11 6.64C3.15667 6.78 3.22333 6.90333 3.31 7.01C3.4 7.11333 3.51 7.19333 3.64 7.25C3.77 7.30333 3.91833 7.33 4.085 7.33C4.33833 7.33 4.55167 7.26833 4.725 7.145C4.90167 7.02167 5.00833 6.85167 5.045 6.635H5.865C5.835 6.90167 5.745 7.14667 5.595 7.37C5.44833 7.59 5.24667 7.76667 4.99 7.9C4.73667 8.03 4.435 8.095 4.085 8.095ZM6.40902 8V4.32H7.22902V8H6.40902ZM8.62402 8L7.55402 6.43H8.45402L9.57402 8H8.62402ZM7.00902 6.83V6.185H7.90902C8.02902 6.185 8.13236 6.16167 8.21902 6.115C8.30902 6.065 8.37736 5.99667 8.42402 5.91C8.47402 5.82 8.49902 5.71667 8.49902 5.6C8.49902 5.48333 8.47402 5.38167 8.42402 5.295C8.37736 5.205 8.30902 5.13667 8.21902 5.09C8.13236 5.04 8.02902 5.015 7.90902 5.015H7.00902V4.32H7.84402C8.14736 4.32 8.41069 4.36667 8.63402 4.46C8.85736 4.55 9.02902 4.685 9.14902 4.865C9.26902 5.045 9.32902 5.27167 9.32902 5.545V5.625C9.32902 5.895 9.26736 6.12 9.14402 6.3C9.02402 6.47667 8.85236 6.61 8.62902 6.7C8.40902 6.78667 8.14736 6.83 7.84402 6.83H7.00902ZM10.0614 8V4.35H11.1914L12.0264 6.4H12.1214L12.9464 4.35H14.0964V8H13.2864V4.885L13.4014 4.895L12.4364 7.26H11.6564L10.6864 4.895L10.8114 4.885V8H10.0614Z" fill="white"/>
<path d="M3.678 11.373V10.947H4.071C4.147 10.947 4.212 10.932 4.266 10.902C4.322 10.872 4.365 10.83 4.395 10.776C4.425 10.72 4.44 10.656 4.44 10.584C4.44 10.508 4.425 10.443 4.395 10.389C4.365 10.333 4.322 10.291 4.266 10.263C4.212 10.233 4.147 10.218 4.071 10.218H3.678V9.792H4.047C4.233 9.792 4.392 9.823 4.524 9.885C4.658 9.947 4.76 10.035 4.83 10.149C4.902 10.263 4.938 10.4 4.938 10.56V10.608C4.938 10.764 4.902 10.9 4.83 11.016C4.76 11.13 4.658 11.218 4.524 11.28C4.392 11.342 4.233 11.373 4.047 11.373H3.678ZM3.246 12V9.792H3.738V12H3.246ZM5.21998 12V9.81H5.69998V11.073H5.62798C5.62798 10.907 5.64898 10.767 5.69098 10.653C5.73298 10.539 5.79498 10.453 5.87698 10.395C5.95898 10.335 6.06198 10.305 6.18598 10.305H6.20698C6.38898 10.305 6.52798 10.37 6.62398 10.5C6.71998 10.628 6.76798 10.816 6.76798 11.064V12H6.28798V11.034C6.28798 10.944 6.26098 10.872 6.20698 10.818C6.15498 10.762 6.08598 10.734 5.99998 10.734C5.90998 10.734 5.83698 10.763 5.78098 10.821C5.72698 10.879 5.69998 10.956 5.69998 11.052V12H5.21998ZM8.17001 12V11.514H8.08901V10.986C8.08901 10.902 8.06901 10.839 8.02901 10.797C7.98901 10.755 7.92501 10.734 7.83701 10.734C7.79301 10.734 7.73501 10.735 7.66301 10.737C7.59101 10.739 7.51701 10.742 7.44101 10.746C7.36501 10.75 7.29601 10.754 7.23401 10.758V10.353C7.28001 10.349 7.33401 10.345 7.39601 10.341C7.45801 10.337 7.52201 10.334 7.58801 10.332C7.65401 10.33 7.71601 10.329 7.77401 10.329C7.94201 10.329 8.08301 10.353 8.19701 10.401C8.31301 10.449 8.40101 10.522 8.46101 10.62C8.52101 10.716 8.55101 10.84 8.55101 10.992V12H8.17001ZM7.64501 12.042C7.52701 12.042 7.42301 12.021 7.33301 11.979C7.24501 11.937 7.17601 11.877 7.12601 11.799C7.07601 11.719 7.05101 11.624 7.05101 11.514C7.05101 11.394 7.08201 11.296 7.14401 11.22C7.20601 11.142 7.29301 11.085 7.40501 11.049C7.51701 11.011 7.64601 10.992 7.79201 10.992H8.14301V11.259H7.78901C7.70501 11.259 7.64001 11.28 7.59401 11.322C7.55001 11.362 7.52801 11.417 7.52801 11.487C7.52801 11.553 7.55001 11.607 7.59401 11.649C7.64001 11.689 7.70501 11.709 7.78901 11.709C7.84301 11.709 7.89101 11.7 7.93301 11.682C7.97701 11.662 8.01301 11.629 8.04101 11.583C8.06901 11.537 8.08501 11.473 8.08901 11.391L8.20301 11.511C8.19301 11.625 8.16501 11.721 8.11901 11.799C8.07501 11.877 8.01301 11.937 7.93301 11.979C7.85501 12.021 7.75901 12.042 7.64501 12.042ZM8.95826 12V10.356H9.33926V11.061H9.33026C9.33026 10.829 9.37926 10.65 9.47726 10.524C9.57726 10.398 9.72126 10.335 9.90926 10.335H9.97226V10.749H9.85226C9.72026 10.749 9.61826 10.785 9.54626 10.857C9.47426 10.927 9.43826 11.029 9.43826 11.163V12H8.95826ZM10.221 12V10.356H10.602V11.064H10.575C10.575 10.896 10.596 10.756 10.638 10.644C10.68 10.532 10.743 10.448 10.827 10.392C10.911 10.334 11.014 10.305 11.136 10.305H11.157C11.281 10.305 11.384 10.334 11.466 10.392C11.55 10.448 11.613 10.532 11.655 10.644C11.699 10.756 11.721 10.896 11.721 11.064H11.604C11.604 10.896 11.625 10.756 11.667 10.644C11.711 10.532 11.775 10.448 11.859 10.392C11.943 10.334 12.046 10.305 12.168 10.305H12.189C12.313 10.305 12.417 10.334 12.501 10.392C12.587 10.448 12.652 10.532 12.696 10.644C12.74 10.756 12.762 10.896 12.762 11.064V12H12.282V11.037C12.282 10.947 12.258 10.874 12.21 10.818C12.164 10.762 12.098 10.734 12.012 10.734C11.926 10.734 11.858 10.763 11.808 10.821C11.758 10.877 11.733 10.952 11.733 11.046V12H11.25V11.037C11.25 10.947 11.226 10.874 11.178 10.818C11.132 10.762 11.067 10.734 10.983 10.734C10.895 10.734 10.826 10.763 10.776 10.821C10.726 10.877 10.701 10.952 10.701 11.046V12H10.221Z" fill="white"/>
<defs>
<filter id="filter0_dd_1212_88" x="-2.33334" y="1.82336" width="13.5734" height="14.6766" filterUnits="userSpaceOnUse" color-interpolation-filters="sRGB">
<feFlood flood-opacity="0" result="BackgroundImageFix"/>
<feColorMatrix in="SourceAlpha" type="matrix" values="0 0 0 0 0 0 0 0 0 0 0 0 0 0 0 0 0 0 127 0" result="hardAlpha"/>
<feOffset dy="4"/>
<feGaussianBlur stdDeviation="2"/>
<feComposite in2="hardAlpha" operator="out"/>
<feColorMatrix type="matrix" values="0 0 0 0 0 0 0 0 0 0 0 0 0 0 0 0 0 0 0.25 0"/>
<feBlend mode="normal" in2="BackgroundImageFix" result="effect1_dropShadow_1212_88"/>
<feColorMatrix in="SourceAlpha" type="matrix" values="0 0 0 0 0 0 0 0 0 0 0 0 0 0 0 0 0 0 127 0" result="hardAlpha"/>
<feOffset dy="4"/>
<feGaussianBlur stdDeviation="2"/>
<feComposite in2="hardAlpha" operator="out"/>
<feColorMatrix type="matrix" values="0 0 0 0 0 0 0 0 0 0 0 0 0 0 0 0 0 0 0.25 0"/>
<feBlend mode="normal" in2="effect1_dropShadow_1212_88" result="effect2_dropShadow_1212_88"/>
<feBlend mode="normal" in="SourceGraphic" in2="effect2_dropShadow_1212_88" result="shape"/>
</filter>
<clipPath id="clip0_1212_88">
<rect width="14" height="14" fill="white" transform="translate(1 1)"/>
</clipPath>
</defs>
</svg>
